<svg width="51" height="51" viewBox="0 0 51 51" fill="none" xmlns="http://www.w3.org/2000/svg">
    <g clip-path="url(#clip0_501_400)">
        <circle cx="25.362" cy="25.362" r="24.862" stroke="white"/>
        <g clip-path="url(#clip1_501_400)">
            <path d="M25.362 12.5649C29.5321 12.5649 30.0259 12.5832 31.6659 12.6564C33.1901 12.7235 34.0131 12.9795 34.5618 13.1929C35.2873 13.4733 35.8116 13.8147 36.3542 14.3573C36.9029 14.906 37.2382 15.4243 37.5187 16.1498C37.7321 16.6985 37.9881 17.5276 38.0552 19.0457C38.1283 20.6917 38.1466 21.1856 38.1466 25.3496C38.1466 29.5197 38.1283 30.0135 38.0552 31.6535C37.9881 33.1776 37.7321 34.0007 37.5187 34.5494C37.2382 35.2749 36.8968 35.7992 36.3542 36.3418C35.8055 36.8905 35.2873 37.2258 34.5618 37.5062C34.0131 37.7196 33.184 37.9757 31.6659 38.0427C30.0198 38.1159 29.526 38.1342 25.362 38.1342C21.1919 38.1342 20.6981 38.1159 19.0581 38.0427C17.5339 37.9757 16.7109 37.7196 16.1622 37.5062C15.4367 37.2258 14.9124 36.8844 14.3698 36.3418C13.8211 35.7931 13.4858 35.2749 13.2053 34.5494C12.9919 34.0007 12.7359 33.1715 12.6688 31.6535C12.5957 30.0074 12.5774 29.5136 12.5774 25.3496C12.5774 21.1795 12.5957 20.6856 12.6688 19.0457C12.7359 17.5215 12.9919 16.6985 13.2053 16.1498C13.4858 15.4243 13.8272 14.8999 14.3698 14.3573C14.9185 13.8087 15.4367 13.4733 16.1622 13.1929C16.7109 12.9795 17.54 12.7235 19.0581 12.6564C20.6981 12.5832 21.1919 12.5649 25.362 12.5649ZM25.362 9.75439C21.1248 9.75439 20.5944 9.77268 18.9301 9.84584C17.2718 9.919 16.1317 10.1873 15.1441 10.5713C14.1137 10.9737 13.2419 11.5041 12.3762 12.3759C11.5044 13.2417 10.974 14.1135 10.5716 15.1377C10.1875 16.1315 9.91925 17.2654 9.84609 18.9237C9.77293 20.5942 9.75464 21.1246 9.75464 25.3618C9.75464 29.5989 9.77293 30.1293 9.84609 31.7937C9.91925 33.452 10.1875 34.592 10.5716 35.5797C10.974 36.61 11.5044 37.4818 12.3762 38.3476C13.2419 39.2133 14.1137 39.7498 15.138 40.1461C16.1317 40.5302 17.2657 40.7984 18.924 40.8716C20.5883 40.9447 21.1187 40.963 25.3559 40.963C29.5931 40.963 30.1235 40.9447 31.7878 40.8716C33.4461 40.7984 34.5862 40.5302 35.5739 40.1461C36.5981 39.7498 37.4699 39.2133 38.3356 38.3476C39.2013 37.4818 39.7378 36.61 40.1341 35.5858C40.5182 34.5921 40.7865 33.4581 40.8596 31.7998C40.9328 30.1354 40.9511 29.605 40.9511 25.3679C40.9511 21.1307 40.9328 20.6003 40.8596 18.9359C40.7865 17.2776 40.5182 16.1376 40.1341 15.1499C39.75 14.1135 39.2196 13.2417 38.3478 12.3759C37.4821 11.5102 36.6103 10.9737 35.586 10.5774C34.5923 10.1934 33.4583 9.9251 31.8 9.85194C30.1296 9.77268 29.5992 9.75439 25.362 9.75439Z" fill="white"/>
            <path d="M25.362 17.3447C20.9359 17.3447 17.345 20.9356 17.345 25.3618C17.345 29.7879 20.9359 33.3789 25.362 33.3789C29.7882 33.3789 33.3791 29.7879 33.3791 25.3618C33.3791 20.9356 29.7882 17.3447 25.362 17.3447ZM25.362 30.5622C22.4905 30.5622 20.1616 28.2333 20.1616 25.3618C20.1616 22.4903 22.4905 20.1614 25.362 20.1614C28.2335 20.1614 30.5625 22.4903 30.5625 25.3618C30.5625 28.2333 28.2335 30.5622 25.362 30.5622Z" fill="white"/>
            <path d="M35.5678 17.0274C35.5678 18.0639 34.7265 18.8991 33.6961 18.8991C32.6597 18.8991 31.8245 18.0578 31.8245 17.0274C31.8245 15.991 32.6658 15.1558 33.6961 15.1558C34.7265 15.1558 35.5678 15.9971 35.5678 17.0274Z" fill="white"/>
        </g>
    </g>
    <defs>
        <clipPath id="clip0_501_400">
            <rect width="50.7239" height="50.7239" fill="white"/>
        </clipPath>
        <clipPath id="clip1_501_400">
            <rect width="31.2147" height="31.2147" fill="white" transform="translate(9.75464 9.75439)"/>
        </clipPath>
    </defs>
</svg>
