<svg width="51" height="51" viewBox="0 0 51 51" fill="none" xmlns="http://www.w3.org/2000/svg">
    <g clip-path="url(#clip0_501_401)">
        <circle cx="25.362" cy="25.362" r="24.862" stroke="white"/>
        <g clip-path="url(#clip1_501_401)">
            <path d="M40.6584 19.1189C40.6584 19.1189 40.3536 16.9668 39.4147 16.0218C38.2259 14.7781 36.8968 14.772 36.2872 14.6989C31.922 14.3818 25.3681 14.3818 25.3681 14.3818H25.3559C25.3559 14.3818 18.802 14.3818 14.4368 14.6989C13.8272 14.772 12.4981 14.7781 11.3093 16.0218C10.3704 16.9668 10.0717 19.1189 10.0717 19.1189C10.0717 19.1189 9.75464 21.649 9.75464 24.173V26.5385C9.75464 29.0625 10.0656 31.5926 10.0656 31.5926C10.0656 31.5926 10.3704 33.7447 11.3032 34.6897C12.492 35.9334 14.0528 35.8907 14.7478 36.0249C17.2474 36.2626 25.362 36.3358 25.362 36.3358C25.362 36.3358 31.922 36.3236 36.2872 36.0127C36.8968 35.9395 38.2259 35.9334 39.4147 34.6897C40.3536 33.7447 40.6584 31.5926 40.6584 31.5926C40.6584 31.5926 40.9694 29.0686 40.9694 26.5385V24.173C40.9694 21.649 40.6584 19.1189 40.6584 19.1189ZM22.1369 29.41V20.637L30.5685 25.0387L22.1369 29.41Z" fill="white"/>
        </g>
    </g>
    <defs>
        <clipPath id="clip0_501_401">
            <rect width="50.7239" height="50.7239" fill="white"/>
        </clipPath>
        <clipPath id="clip1_501_401">
            <rect width="31.2147" height="31.2147" fill="white" transform="translate(9.75464 9.75439)"/>
        </clipPath>
    </defs>
</svg>
